<svg width="80" height="80" viewBox="0 0 80 80" fill="none" xmlns="http://www.w3.org/2000/svg">
<path d="M39.5349 77.9995L17.8356 71.9756L13 17.7388H66.1349L61.2941 71.9671L39.5349 77.9995Z" fill="#264DE4"/>
<path d="M57.145 68.5149L61.2817 22.1743H39.5625V73.3895L57.145 68.5149Z" fill="#2965F1"/>
<path d="M24.0918 42.2896L24.688 48.9414H39.5737V42.2896H24.0918Z" fill="#EBEBEB"/>
<path d="M22.8877 28.8262L23.4924 35.4782H39.5676V28.8262H22.8877Z" fill="#EBEBEB"/>
<path d="M39.568 59.5654L39.5389 59.5732L32.1306 57.5728L31.657 52.2676H24.9795L25.9114 62.7121L39.5374 66.4947L39.568 66.4862V59.5654Z" fill="#EBEBEB"/>
<path d="M25.5 3H33.5566V6.36914H28.8691V9.73828H33.5566V13.1074H25.5V3Z" fill="white"/>
<path d="M35.168 3H43.2246V5.92969H38.5371V6.51563H43.2246V13.2539H35.168V10.1777H39.8555V9.5918H35.168V3Z" fill="white"/>
<path d="M44.8359 3H52.8926V5.92969H48.2051V6.51563H52.8926V13.2539H44.8359V10.1777H49.5234V9.5918H44.8359V3Z" fill="white"/>
<path d="M55.0082 42.2898L56.2091 28.8262H39.5459V35.4782H48.9191L48.3139 42.2898H39.5459V48.9417H47.737L46.9649 57.5688L39.5459 59.5712V66.4917L53.1827 62.7123L53.2828 61.5884L54.8459 44.0761L55.0082 42.2898Z" fill="white"/>
</svg>
