<svg width="81" height="81" viewBox="0 0 81 81" fill="none" xmlns="http://www.w3.org/2000/svg">
<mask id="mask0_685_86738" style="mask-type:luminance" maskUnits="userSpaceOnUse" x="12" y="2" width="57" height="77">
<path d="M60.9124 19.1066C60.8379 18.6523 60.587 18.2458 60.2142 17.9757C59.8414 17.7055 59.377 17.5936 58.9221 17.6644C58.5646 17.7119 58.234 17.8797 57.9847 18.1403L48.9852 27.1253L41.9472 13.6838C41.8422 13.482 41.6984 13.3029 41.5242 13.1566C41.3499 13.0104 41.1485 12.9 40.9315 12.8317C40.7145 12.7633 40.4861 12.7385 40.2595 12.7585C40.0329 12.7785 39.8124 12.843 39.6108 12.9483C39.3051 13.1245 39.0514 13.3782 38.8752 13.6838L35.0389 21.0392L25.3616 2.98257C25.2531 2.78427 25.1065 2.60936 24.9302 2.46789C24.7539 2.32641 24.5514 2.22116 24.3343 2.15818C24.1172 2.09519 23.8898 2.07572 23.6651 2.10086C23.4405 2.12601 23.223 2.19529 23.0252 2.30472C22.7904 2.43006 22.5869 2.60662 22.4296 2.82133C22.2723 3.03603 22.1653 3.28338 22.1166 3.54503L12.7422 63.426L37.7647 77.531C38.5361 77.9539 39.4017 78.1756 40.2814 78.1756C41.1611 78.1756 42.0267 77.9539 42.7981 77.531L68.0369 63.4837L60.9124 19.1066Z" fill="white"/>
</mask>
<g mask="url(#mask0_685_86738)">
<path d="M12.7305 63.426L22.1049 3.54498C22.1759 3.10234 22.4188 2.7056 22.7806 2.44096C23.1425 2.17632 23.5941 2.06515 24.0375 2.1316C24.2994 2.17962 24.5475 2.28461 24.7643 2.43913C24.9811 2.59364 25.1613 2.79391 25.2922 3.02578L34.9695 21.0968L38.8058 13.7415C38.9108 13.5396 39.0545 13.3605 39.2288 13.2143C39.4031 13.068 39.6045 12.9576 39.8215 12.8893C40.0385 12.821 40.2669 12.7961 40.4935 12.8161C40.7201 12.8361 40.9406 12.9007 41.1422 13.0059C41.4478 13.1821 41.7016 13.4359 41.8778 13.7415L67.982 63.426H12.7305Z" fill="#FFA000"/>
<path opacity="0.12" d="M44.7073 2.53549L-1.09766 -1.37292V81.5836L12.7332 63.4261L44.7073 2.53549Z" fill="url(#paint0_linear_685_86738)"/>
<path d="M45.0939 40.1053L34.9984 21.0536L12.7305 63.426L45.0939 40.1053Z" fill="#F57C00"/>
<path opacity="0.2" d="M-1.09766 -1.37292H81.8589V81.5836H-1.09766V-1.37292Z" fill="url(#paint1_linear_685_86738)"/>
<path d="M68.0396 63.426L60.8285 19.0633C60.7541 18.609 60.5032 18.2025 60.1304 17.9324C59.7576 17.6622 59.2932 17.5503 58.8383 17.6211C58.4818 17.6718 58.1522 17.8392 57.9008 18.097L12.7305 63.426L37.753 77.5309C38.5244 77.9538 39.39 78.1755 40.2697 78.1755C41.1494 78.1755 42.0149 77.9538 42.7864 77.5309L68.0396 63.426Z" fill="#FFCA28"/>
<path d="M60.9006 19.1066C60.8262 18.6523 60.5753 18.2458 60.2025 17.9757C59.8297 17.7055 59.3653 17.5936 58.9104 17.6644C58.5529 17.7119 58.2222 17.8797 57.9729 18.1403L48.9735 27.1253L41.9354 13.6838C41.8305 13.482 41.6867 13.3029 41.5124 13.1566C41.3382 13.0104 41.1367 12.9 40.9197 12.8317C40.7027 12.7633 40.4744 12.7385 40.2478 12.7585C40.0212 12.7785 39.8007 12.843 39.599 12.9483C39.2934 13.1245 39.0397 13.3782 38.8635 13.6838L35.0272 21.0392L25.3499 2.98257C25.2414 2.78427 25.0948 2.60936 24.9185 2.46789C24.7422 2.32641 24.5396 2.22116 24.3225 2.15818C24.1055 2.09519 23.8781 2.07572 23.6534 2.10086C23.4288 2.12601 23.2113 2.19529 23.0135 2.30472C22.7787 2.43006 22.5751 2.60662 22.4178 2.82133C22.2606 3.03603 22.1536 3.28338 22.1049 3.54503L12.7305 63.426L12.9901 63.5558L49.0456 27.5003L58.0451 18.5153C58.2038 18.3504 58.3942 18.2192 58.6049 18.1297C58.8155 18.0401 59.042 17.9939 59.2709 17.9939C59.4998 17.9939 59.7264 18.0401 59.937 18.1297C60.1477 18.2192 60.3381 18.3504 60.4968 18.5153C60.7633 18.7661 60.932 19.1035 60.9728 19.4672L68.0685 63.3972H68.155L60.9006 19.1066ZM12.817 63.3395L22.1049 3.9777C22.1349 3.75511 22.2089 3.54075 22.3228 3.34716C22.4367 3.15358 22.588 2.98467 22.768 2.85035C22.948 2.71603 23.153 2.61899 23.371 2.56492C23.589 2.51085 23.8156 2.50084 24.0375 2.53548C24.3004 2.58059 24.5498 2.68442 24.767 2.83923C24.9842 2.99405 25.1638 3.19586 25.2922 3.42966L34.9695 21.5007L38.8058 14.1454C38.9093 13.9422 39.0523 13.7616 39.2264 13.6143C39.4005 13.467 39.6022 13.3559 39.8197 13.2874C40.0372 13.2189 40.2662 13.1945 40.4933 13.2155C40.7204 13.2365 40.941 13.3026 41.1422 13.4098C41.4478 13.586 41.7016 13.8397 41.8778 14.1454L48.786 27.284L12.817 63.3395Z" fill="white" fill-opacity="0.2"/>
<path opacity="0.2" d="M42.7939 77.0405C42.0207 77.466 41.1525 77.6891 40.27 77.6891C39.3875 77.6891 38.5193 77.466 37.7461 77.0405L12.7812 63.1087V63.4981L37.7605 77.5309C38.5319 77.9538 39.3975 78.1754 40.2772 78.1754C41.1569 78.1754 42.0225 77.9538 42.7939 77.5309L68.0327 63.4836V63.0942L42.7939 77.0405Z" fill="#A52714"/>
<path d="M60.9007 19.1066C60.8262 18.6523 60.5753 18.2458 60.2025 17.9757C59.8297 17.7055 59.3653 17.5936 58.9104 17.6644C58.5529 17.7119 58.2222 17.8797 57.9729 18.1403L48.9735 27.1253L41.9354 13.6838C41.8305 13.482 41.6867 13.3029 41.5124 13.1566C41.3382 13.0104 41.1368 12.9 40.9197 12.8317C40.7027 12.7633 40.4744 12.7385 40.2478 12.7585C40.0212 12.7785 39.8007 12.843 39.599 12.9483C39.2934 13.1245 39.0397 13.3782 38.8635 13.6838L35.0272 21.0392L25.3499 2.98257C25.2414 2.78427 25.0948 2.60936 24.9185 2.46789C24.7422 2.32641 24.5396 2.22116 24.3225 2.15818C24.1055 2.09519 23.8781 2.07572 23.6534 2.10086C23.4288 2.12601 23.2113 2.19529 23.0135 2.30472C22.7787 2.43006 22.5751 2.60662 22.4178 2.82133C22.2606 3.03603 22.1536 3.28338 22.1049 3.54503L12.7305 63.426L37.753 77.531C38.5244 77.9539 39.39 78.1756 40.2697 78.1756C41.1494 78.1756 42.0149 77.9539 42.7864 77.531L68.0252 63.4837L60.9007 19.1066Z" fill="url(#paint2_linear_685_86738)"/>
</g>
<defs>
<linearGradient id="paint0_linear_685_86738" x1="23.5066" y1="42.9321" x2="20.0597" y2="41.1293" gradientUnits="userSpaceOnUse">
<stop stop-color="#A52714"/>
<stop offset="0.4" stop-color="#A52714" stop-opacity="0.5"/>
<stop offset="0.8" stop-color="#A52714" stop-opacity="0"/>
</linearGradient>
<linearGradient id="paint1_linear_685_86738" x1="38.1884" y1="37.8988" x2="36.6453" y2="36.3556" gradientUnits="userSpaceOnUse">
<stop stop-color="#A52714" stop-opacity="0.8"/>
<stop offset="0.5" stop-color="#A52714" stop-opacity="0.21"/>
<stop offset="1" stop-color="#A52714" stop-opacity="0"/>
</linearGradient>
<linearGradient id="paint2_linear_685_86738" x1="11.2568" y1="15.4663" x2="68.9792" y2="73.2272" gradientUnits="userSpaceOnUse">
<stop stop-color="white" stop-opacity="0.1"/>
<stop offset="1" stop-color="white" stop-opacity="0"/>
</linearGradient>
</defs>
</svg>
