<svg width="80" height="80" viewBox="0 0 80 80" fill="none" xmlns="http://www.w3.org/2000/svg">
<path fill-rule="evenodd" clip-rule="evenodd" d="M46.7826 10.5949L62.2043 19.4989C62.6385 19.0389 63.1457 18.6327 63.7212 18.2985C66.9196 16.4599 70.999 17.5516 72.8568 20.75C74.6954 23.9484 73.6037 28.0278 70.4053 29.8856C69.8343 30.2138 69.2345 30.4487 68.6241 30.5948V48.4098C69.2279 48.5562 69.8211 48.7896 70.3861 49.1144C73.6037 50.9722 74.6954 55.0516 72.8376 58.25C70.999 61.4484 66.9004 62.5401 63.702 60.7015C63.0652 60.3354 62.512 59.8798 62.0487 59.3595L46.7211 68.2092C46.9402 68.8713 47.0587 69.5795 47.0587 70.3159C47.0587 73.9931 44.071 77 40.3746 77C36.6783 77 33.6905 74.0123 33.6905 70.3159C33.6905 69.6588 33.7849 69.0242 33.9609 68.4247L18.5433 59.5231C18.1137 59.9741 17.6135 60.3726 17.0473 60.7015C13.8297 62.5401 9.75027 61.4484 7.91166 58.25C6.07305 55.0516 7.16472 50.9722 10.3631 49.1144C10.9286 48.7893 11.5217 48.5558 12.1251 48.4094V30.5948C11.5147 30.4487 10.915 30.2138 10.344 29.8856C7.14557 28.047 6.05389 23.9484 7.89251 20.75C9.73112 17.5516 13.8297 16.4599 17.0281 18.2985C17.6004 18.6309 18.1052 19.0345 18.5379 19.4914L33.9638 10.585C33.7859 9.98265 33.6905 9.3447 33.6905 8.68412C33.6905 4.98774 36.6783 2 40.3746 2C44.071 2 47.0587 4.98774 47.0587 8.68412C47.0587 9.34832 46.9623 9.98965 46.7826 10.5949ZM45.1758 13.3382L60.6342 22.2634C60.1564 23.9417 60.3318 25.8025 61.2697 27.4341C62.2107 29.071 63.7436 30.1561 65.4449 30.579V48.4162C65.3582 48.4375 65.2719 48.4605 65.1861 48.4852L44.9963 13.5165C45.0573 13.4582 45.1171 13.3988 45.1758 13.3382ZM35.7572 13.5205L15.5677 48.4887C15.4804 48.4633 15.3926 48.4398 15.3044 48.418V30.579C17.0057 30.1561 18.5386 29.071 19.4796 27.4341C20.4194 25.7993 20.5936 23.9343 20.1122 22.2535L35.5663 13.3308C35.6286 13.3953 35.6923 13.4586 35.7572 13.5205ZM42.2422 15.1047L62.4271 50.0649C61.9754 50.4956 61.5773 50.9975 61.2505 51.5659C60.9257 52.1309 60.6923 52.7241 60.5459 53.3279H20.2037C20.0573 52.7244 19.8238 52.1314 19.4987 51.5659C19.1707 51.0011 18.7734 50.5021 18.3239 50.0732L38.5126 15.1063C39.1035 15.2769 39.7282 15.3682 40.3746 15.3682C41.0231 15.3682 41.6497 15.2763 42.2422 15.1047ZM45.3177 65.8128L60.6758 56.9456C60.6297 56.8009 60.5886 56.6546 60.5524 56.5071H20.1952C20.1738 56.5938 20.1506 56.68 20.1258 56.7658L35.5592 65.6765C36.7744 64.4154 38.4816 63.6318 40.3746 63.6318C42.335 63.6318 44.096 64.4721 45.3177 65.8128Z" fill="#E535AB"/>
</svg>
