<svg width="36" height="36" viewBox="0 0 36 36" fill="none" xmlns="http://www.w3.org/2000/svg">
    <g clip-path="url(#clip0_35_1144)">
        <path d="M36 0H0V36H36V0Z" fill="#F1DC50" />
        <path d="M18 16.5C18 23.6238 18 27.6238 18 28.5C18 29.8143 17.2157 31.5 15 31.5C11.4219 31.5 11.25 28.5 11.25 28.5M31.1849 20.2741C30.2848 18.758 29.0916 18 27.6053 18C25.2845 18 24 19.5 24 21C24 22.5 24.75 24 27.7626 24.75C29.6797 25.2273 31.5 26.25 31.5 28.5C31.5 30.75 29.5268 31.5 27.75 31.5C25.4792 31.5 23.9792 30.5 23.25 28.5" stroke="#333333" stroke-width="3" />
    </g>
    <defs>
        <clipPath id="clip0_35_1144">
            <rect width="36" height="36" fill="white" />
        </clipPath>
    </defs>
</svg>