<svg width="80" height="80" viewBox="0 0 80 80" fill="none" xmlns="http://www.w3.org/2000/svg">
<path d="M40.095 62.9274C39.8406 62.9274 39.6033 62.8596 39.3829 62.7409L37.128 61.4015C36.789 61.2151 36.9585 61.1472 37.0602 61.1133C37.518 60.9607 37.6027 60.9268 38.0774 60.6556C38.1283 60.6217 38.1961 60.6386 38.247 60.6725L39.9763 61.7067C40.0441 61.7406 40.1289 61.7406 40.1797 61.7067L46.9443 57.7904C47.0121 57.7565 47.046 57.6887 47.046 57.6039V49.7882C47.046 49.7034 47.0121 49.6356 46.9443 49.6017L40.1797 45.7023C40.1119 45.6684 40.0271 45.6684 39.9763 45.7023L33.2117 49.6017C33.1439 49.6356 33.11 49.7204 33.11 49.7882V57.6039C33.11 57.6717 33.1439 57.7565 33.2117 57.7904L35.0597 58.8585C36.0599 59.3671 36.6872 58.7737 36.6872 58.1803V50.4663C36.6872 50.3646 36.772 50.2629 36.8907 50.2629H37.7553C37.857 50.2629 37.9588 50.3476 37.9588 50.4663V58.1803C37.9588 59.5197 37.2298 60.2995 35.9582 60.2995C35.5683 60.2995 35.2631 60.2995 34.3985 59.8757L32.6183 58.8585C32.1775 58.6042 31.9062 58.1295 31.9062 57.6208V49.8051C31.9062 49.2965 32.1775 48.8218 32.6183 48.5675L39.3829 44.6512C39.8067 44.4138 40.3832 44.4138 40.807 44.6512L47.5716 48.5675C48.0124 48.8218 48.2836 49.2965 48.2836 49.8051V57.6208C48.2836 58.1295 48.0124 58.6042 47.5716 58.8585L40.807 62.7748C40.5866 62.8765 40.3323 62.9274 40.095 62.9274ZM42.1803 57.553C39.2134 57.553 38.603 56.1967 38.603 55.0439C38.603 54.9421 38.6878 54.8404 38.8065 54.8404H39.6881C39.7898 54.8404 39.8746 54.9082 39.8746 55.01C40.0102 55.9085 40.4001 56.3493 42.1972 56.3493C43.6213 56.3493 44.2317 56.0272 44.2317 55.2643C44.2317 54.8235 44.0621 54.5013 41.8412 54.2809C39.9932 54.0944 38.8404 53.6876 38.8404 52.2126C38.8404 50.8393 39.9932 50.0255 41.926 50.0255C44.0961 50.0255 45.1641 50.7715 45.2998 52.3991C45.2998 52.4499 45.2828 52.5008 45.2489 52.5516C45.215 52.5856 45.1641 52.6195 45.1133 52.6195H44.2317C44.1469 52.6195 44.0621 52.5516 44.0452 52.4669C43.8417 51.5344 43.3162 51.2292 41.926 51.2292C40.3662 51.2292 40.1797 51.7718 40.1797 52.1787C40.1797 52.6703 40.4001 52.8229 42.5024 53.0942C44.5877 53.3654 45.571 53.7554 45.571 55.2134C45.5541 56.7053 44.3334 57.553 42.1803 57.553Z" fill="#539E43"/>
<path d="M19.1061 32.3603C19.1061 32.0551 18.9366 31.7669 18.6653 31.6143L11.4769 27.4776C11.3582 27.4097 11.2226 27.3758 11.087 27.3589H11.0192C10.8835 27.3589 10.7479 27.4097 10.6292 27.4776L3.4408 31.6143C3.16954 31.7669 3 32.0551 3 32.3603L3.01695 43.482C3.01695 43.6346 3.10172 43.7871 3.23735 43.855C3.37298 43.9397 3.54252 43.9397 3.6612 43.855L7.93356 41.4136C8.20483 41.261 8.37436 40.9728 8.37436 40.6676V35.4628C8.37436 35.1576 8.5439 34.8694 8.81516 34.7168L10.6292 33.6657C10.7649 33.5809 10.9174 33.547 11.07 33.547C11.2226 33.547 11.3752 33.5809 11.4939 33.6657L13.3079 34.7168C13.5792 34.8694 13.7487 35.1576 13.7487 35.4628V40.6676C13.7487 40.9728 13.9183 41.261 14.1895 41.4136L18.4619 43.855C18.5975 43.9397 18.7671 43.9397 18.9027 43.855C19.0383 43.7871 19.1231 43.6346 19.1231 43.482L19.1061 32.3603Z" fill="white"/>
<path d="M53.6586 17.0509C53.523 16.983 53.3534 16.983 53.2348 17.0509C53.0991 17.1356 53.0144 17.2713 53.0144 17.4238V28.4438C53.0144 28.5456 52.9635 28.6473 52.8618 28.7151C52.76 28.766 52.6583 28.766 52.5566 28.7151L50.7595 27.6809C50.4882 27.5283 50.1661 27.5283 49.8949 27.6809L42.7064 31.8346C42.4352 31.9872 42.2656 32.2754 42.2656 32.5806V40.871C42.2656 41.1762 42.4352 41.4644 42.7064 41.617L49.8949 45.7706C50.1661 45.9232 50.4882 45.9232 50.7595 45.7706L57.9479 41.617C58.2192 41.4644 58.3887 41.1762 58.3887 40.871V20.2043C58.3887 19.8822 58.2192 19.5939 57.9479 19.4414L53.6586 17.0509ZM52.9974 38.1414C52.9974 38.2262 52.9635 38.294 52.8957 38.3279L50.4374 39.752C50.3696 39.7859 50.2848 39.7859 50.217 39.752L47.7587 38.3279C47.6909 38.294 47.6569 38.2092 47.6569 38.1414V35.2932C47.6569 35.2084 47.6909 35.1406 47.7587 35.1067L50.217 33.6826C50.2848 33.6487 50.3696 33.6487 50.4374 33.6826L52.8957 35.1067C52.9635 35.1406 52.9974 35.2254 52.9974 35.2932V38.1414Z" fill="white"/>
<path d="M77.5758 35.2255C77.847 35.0729 77.9996 34.7847 77.9996 34.4795V32.462C77.9996 32.1568 77.8301 31.8686 77.5758 31.716L70.4382 27.5793C70.1669 27.4267 69.8448 27.4267 69.5736 27.5793L62.3851 31.733C62.1139 31.8856 61.9443 32.1738 61.9443 32.4789V40.7694C61.9443 41.0745 62.1139 41.3627 62.3851 41.5153L69.5227 45.5843C69.794 45.7368 70.1161 45.7368 70.3704 45.5843L74.6936 43.1768C74.8292 43.109 74.914 42.9564 74.914 42.8038C74.914 42.6512 74.8292 42.4987 74.6936 42.4308L67.4713 38.2771C67.3357 38.1924 67.2509 38.0567 67.2509 37.9042V35.3102C67.2509 35.1576 67.3357 35.0051 67.4713 34.9372L69.7261 33.6488C69.8618 33.564 70.0313 33.564 70.1669 33.6488L72.4218 34.9372C72.5574 35.022 72.6422 35.1576 72.6422 35.3102V37.3447C72.6422 37.4973 72.727 37.6499 72.8626 37.7177C72.9982 37.8024 73.1678 37.8024 73.3034 37.7177L77.5758 35.2255Z" fill="white"/>
<path d="M69.8887 34.836C69.9396 34.8021 70.0074 34.8021 70.0582 34.836L71.4315 35.6328C71.4824 35.6667 71.5163 35.7176 71.5163 35.7854V37.3791C71.5163 37.4469 71.4824 37.4977 71.4315 37.5316L70.0582 38.3285C70.0074 38.3624 69.9396 38.3624 69.8887 38.3285L68.5154 37.5316C68.4646 37.4977 68.4307 37.4469 68.4307 37.3791V35.7854C68.4307 35.7176 68.4646 35.6667 68.5154 35.6328L69.8887 34.836Z" fill="#539E43"/>
<mask id="mask0_701_42" style="mask-type:alpha" maskUnits="userSpaceOnUse" x="22" y="27" width="17" height="19">
<path d="M31.1282 27.6125C30.8569 27.4599 30.5348 27.4599 30.2636 27.6125L23.126 31.7323C22.8547 31.8849 22.7021 32.1731 22.7021 32.4782V40.7347C22.7021 41.0399 22.8717 41.3281 23.126 41.4807L30.2636 45.6005C30.5348 45.7531 30.8569 45.7531 31.1282 45.6005L38.2658 41.4807C38.537 41.3281 38.6896 41.0399 38.6896 40.7347V32.4782C38.6896 32.1731 38.5201 31.8849 38.2658 31.7323L31.1282 27.6125Z" fill="white"/>
</mask>
<g mask="url(#mask0_701_42)">
<path d="M31.1282 27.6125C30.8569 27.4599 30.5348 27.4599 30.2636 27.6125L23.126 31.7323C22.8547 31.8849 22.7021 32.1731 22.7021 32.4782V40.7347C22.7021 41.0399 22.8717 41.3281 23.126 41.4807L30.2636 45.6005C30.5348 45.7531 30.8569 45.7531 31.1282 45.6005L38.2658 41.4807C38.537 41.3281 38.6896 41.0399 38.6896 40.7347V32.4782C38.6896 32.1731 38.5201 31.8849 38.2658 31.7323L31.1282 27.6125Z" fill="url(#paint0_linear_701_42)"/>
<path d="M38.2922 31.7334L31.1208 27.6136C31.053 27.5797 30.9682 27.5458 30.9004 27.5288L22.8643 41.2953C22.9321 41.3801 23.0168 41.4479 23.1016 41.4988L30.2731 45.6185C30.4765 45.7372 30.7139 45.7711 30.9343 45.7033L38.4787 31.9029C38.4279 31.8351 38.3601 31.7842 38.2922 31.7334Z" fill="url(#paint1_linear_701_42)"/>
<path fill-rule="evenodd" clip-rule="evenodd" d="M38.2987 41.4815C38.5021 41.3628 38.6547 41.1594 38.7225 40.939L30.8559 27.5115C30.6525 27.4776 30.4321 27.4946 30.2456 27.6132L23.125 31.7161L30.8051 45.7199C30.9068 45.703 31.0255 45.6691 31.1272 45.6182L38.2987 41.4815Z" fill="url(#paint2_linear_701_42)"/>
<path fill-rule="evenodd" clip-rule="evenodd" d="M38.2999 41.4823L31.1454 45.6021C31.0436 45.653 30.9419 45.6869 30.8232 45.7038L30.9589 45.9581L38.8933 41.3637V41.2619L38.6898 40.9229C38.6559 41.1602 38.5033 41.3637 38.2999 41.4823Z" fill="url(#paint3_linear_701_42)"/>
<path fill-rule="evenodd" clip-rule="evenodd" d="M38.2999 41.4823L31.1454 45.6021C31.0436 45.653 30.9419 45.6869 30.8232 45.7038L30.9589 45.9581L38.8933 41.3637V41.2619L38.6898 40.9229C38.6559 41.1602 38.5033 41.3637 38.2999 41.4823Z" fill="url(#paint4_linear_701_42)"/>
</g>
<defs>
<linearGradient id="paint0_linear_701_42" x1="33.6037" y1="30.6836" x2="25.78" y2="42.9765" gradientUnits="userSpaceOnUse">
<stop stop-color="#41873F"/>
<stop offset="0.3288" stop-color="#418B3D"/>
<stop offset="0.6352" stop-color="#419637"/>
<stop offset="0.9319" stop-color="#3FA92D"/>
<stop offset="1" stop-color="#3FAE2A"/>
</linearGradient>
<linearGradient id="paint1_linear_701_42" x1="29.6217" y1="37.5745" x2="49.215" y2="26.9295" gradientUnits="userSpaceOnUse">
<stop offset="0.1376" stop-color="#41873F"/>
<stop offset="0.4032" stop-color="#54A044"/>
<stop offset="0.7136" stop-color="#66B848"/>
<stop offset="0.9081" stop-color="#6CC04A"/>
</linearGradient>
<linearGradient id="paint2_linear_701_42" x1="22.4405" y1="36.6075" x2="38.9564" y2="36.6075" gradientUnits="userSpaceOnUse">
<stop offset="0.0919165" stop-color="#6CC04A"/>
<stop offset="0.2864" stop-color="#66B848"/>
<stop offset="0.5968" stop-color="#54A044"/>
<stop offset="0.8624" stop-color="#41873F"/>
</linearGradient>
<linearGradient id="paint3_linear_701_42" x1="22.4417" y1="43.4544" x2="38.9576" y2="43.4544" gradientUnits="userSpaceOnUse">
<stop offset="0.0919165" stop-color="#6CC04A"/>
<stop offset="0.2864" stop-color="#66B848"/>
<stop offset="0.5968" stop-color="#54A044"/>
<stop offset="0.8624" stop-color="#41873F"/>
</linearGradient>
<linearGradient id="paint4_linear_701_42" x1="41.3637" y1="30.2949" x2="37.1796" y2="52.2197" gradientUnits="userSpaceOnUse">
<stop stop-color="#41873F"/>
<stop offset="0.3288" stop-color="#418B3D"/>
<stop offset="0.6352" stop-color="#419637"/>
<stop offset="0.9319" stop-color="#3FA92D"/>
<stop offset="1" stop-color="#3FAE2A"/>
</linearGradient>
</defs>
</svg>
