<svg width="80" height="80" viewBox="0 0 80 80" fill="none" xmlns="http://www.w3.org/2000/svg">
<path d="M63.6651 28.628C62.887 28.3602 62.0808 28.1068 61.2507 27.8672C61.3872 27.3104 61.5124 26.7608 61.6237 26.2205C63.4513 17.3491 62.2564 10.2022 58.176 7.84917C54.2634 5.5929 47.8646 7.94542 41.4022 13.5695C40.7808 14.1103 40.1576 14.6828 39.5347 15.2829C39.1197 14.8859 38.7053 14.5022 38.292 14.1352C31.5192 8.12164 24.7305 5.58743 20.6541 7.94729C16.7452 10.2101 15.5877 16.9288 17.2328 25.3363C17.3916 26.1484 17.5773 26.9777 17.7873 27.8209C16.8265 28.0936 15.899 28.3844 15.0115 28.6937C7.07109 31.4621 2 35.8008 2 40.3012C2 44.9492 7.44382 49.6112 15.7144 52.4381C16.367 52.6612 17.0443 52.8721 17.7422 53.0723C17.5157 53.9843 17.3186 54.8779 17.1532 55.7495C15.5846 64.0111 16.8096 70.5711 20.708 72.8196C24.7347 75.1417 31.4927 72.7549 38.0733 67.0027C38.5934 66.548 39.1154 66.0658 39.6383 65.5604C40.3161 66.213 40.9928 66.8307 41.6659 67.4101C48.0399 72.8952 54.3353 75.1101 58.2302 72.8553C62.2529 70.5265 63.5603 63.4795 61.8629 54.9057C61.7333 54.2509 61.5825 53.5819 61.4131 52.9011C61.8876 52.7608 62.3536 52.6159 62.8079 52.4653C71.4059 49.6166 77 45.0113 77 40.3012C77 35.7845 71.7654 31.4165 63.6651 28.628ZM61.8002 49.4241C61.3901 49.5599 60.9693 49.6911 60.5405 49.8183C59.5913 46.8134 58.3103 43.6181 56.7426 40.3168C58.2386 37.0941 59.4701 33.9397 60.3927 30.9542C61.1599 31.1762 61.9046 31.4104 62.6222 31.6575C69.5625 34.0467 73.796 37.5793 73.796 40.3012C73.796 43.2005 69.224 46.9642 61.8002 49.4241ZM58.7199 55.5279C59.4704 59.3192 59.5776 62.7469 59.0804 65.4265C58.6337 67.8343 57.7354 69.4396 56.6247 70.0825C54.2611 71.4506 49.2066 69.6723 43.7554 64.9814C43.1305 64.4437 42.5011 63.8695 41.8696 63.2618C43.9829 60.9505 46.095 58.2636 48.1563 55.2795C51.782 54.9577 55.2075 54.4318 58.3139 53.7137C58.4669 54.3308 58.6028 54.9361 58.7199 55.5279ZM27.5692 69.8461C25.2599 70.6616 23.4207 70.685 22.3089 70.0439C19.9432 68.6794 18.9597 63.4124 20.3012 56.3471C20.4549 55.5379 20.6378 54.7068 20.8486 53.8572C23.9209 54.5366 27.3213 55.0254 30.9557 55.3201C33.0309 58.2401 35.204 60.9241 37.3939 63.2742C36.9155 63.7361 36.4389 64.1758 35.9649 64.5902C33.0551 67.1338 30.1391 68.9384 27.5692 69.8461ZM16.7506 49.4063C13.0935 48.1564 10.0734 46.5318 8.00318 44.7591C6.14301 43.1661 5.20384 41.5845 5.20384 40.3012C5.20384 37.5702 9.27543 34.0868 16.0661 31.7192C16.8901 31.4319 17.7526 31.1612 18.6477 30.9068C19.5862 33.9597 20.8174 37.1515 22.3031 40.3791C20.7981 43.6547 19.5495 46.8973 18.6018 49.986C17.9637 49.8026 17.3454 49.6095 16.7506 49.4063ZM20.3771 24.721C18.9676 17.5177 19.9037 12.0838 22.2593 10.7202C24.7684 9.26759 30.3167 11.3387 36.1645 16.5311C36.5383 16.863 36.9136 17.2104 37.2899 17.5698C35.1108 19.9096 32.9576 22.5734 30.9008 25.4762C27.3735 25.8032 23.997 26.3284 20.8926 27.0316C20.6975 26.2465 20.5246 25.4752 20.3771 24.721ZM52.7287 32.7095C51.9866 31.4276 51.2247 30.1761 50.448 28.9587C52.841 29.2612 55.1337 29.6628 57.2867 30.1542C56.6403 32.2258 55.8347 34.3918 54.8863 36.6123C54.206 35.3207 53.4864 34.0184 52.7287 32.7095ZM39.5358 19.8595C41.0136 21.4606 42.4936 23.2481 43.9493 25.1876C42.4824 25.1183 40.9973 25.0823 39.5 25.0823C38.0168 25.0823 36.5427 25.1175 35.0849 25.1856C36.5421 23.2642 38.0348 21.479 39.5358 19.8595ZM26.2584 32.7316C25.517 34.0171 24.8108 35.3123 24.1412 36.6099C23.2082 34.3972 22.41 32.2213 21.758 30.1203C23.8978 29.6414 26.1797 29.2499 28.5575 28.9531C27.7698 30.1817 27.0017 31.4424 26.2584 32.7314V32.7316ZM28.626 51.8778C26.1693 51.6037 23.8531 51.2323 21.7138 50.7667C22.3762 48.6282 23.192 46.4058 24.1448 44.1454C24.8162 45.4421 25.5252 46.7378 26.2711 48.0261H26.2712C27.0309 49.3385 27.818 50.6241 28.626 51.8778ZM39.6244 60.9687C38.1059 59.3302 36.5912 57.5179 35.1119 55.5684C36.5479 55.6247 38.012 55.6535 39.5 55.6535C41.0287 55.6535 42.5399 55.6191 44.0273 55.5529C42.5669 57.5375 41.0922 59.3527 39.6244 60.9687ZM54.9169 44.0302C55.9193 46.315 56.7644 48.5258 57.4353 50.6278C55.2608 51.1239 52.9129 51.5235 50.4392 51.8204C51.2177 50.5866 51.9863 49.3135 52.7415 48.0041C53.5055 46.6792 54.2309 45.3524 54.9169 44.0302ZM49.9662 46.4034C48.7938 48.4362 47.5902 50.3767 46.3683 52.2085C44.1427 52.3676 41.8434 52.4496 39.5 52.4496C37.166 52.4496 34.8958 52.3771 32.7096 52.2352C31.4384 50.3794 30.2086 48.4331 29.0437 46.4209H29.044C27.8821 44.4141 26.8128 42.3904 25.8439 40.3781C26.8125 38.361 27.879 36.335 29.0342 34.3319L29.0339 34.3323C30.1922 32.3238 31.4112 30.387 32.6706 28.5428C34.9011 28.3742 37.1883 28.2863 39.4999 28.2863H39.5C41.8219 28.2863 44.1121 28.3749 46.342 28.545C47.5822 30.3756 48.7929 32.3062 49.9556 34.3149C51.1316 36.3463 52.2119 38.3588 53.1889 40.3325C52.2148 42.3402 51.137 44.373 49.9662 46.4034ZM56.5756 10.6249C59.0871 12.0732 60.0638 17.9143 58.4858 25.5738C58.3852 26.0626 58.2718 26.5604 58.1487 27.0649C55.0371 26.3469 51.6583 25.8127 48.1207 25.4808C46.0599 22.5461 43.9243 19.8781 41.7807 17.5683C42.357 17.0139 42.9325 16.4852 43.5056 15.9863C49.0426 11.1677 54.2177 9.26519 56.5756 10.6249ZM39.5 33.6039C43.1987 33.6039 46.1972 36.6023 46.1972 40.3012C46.1972 43.9999 43.1987 46.9984 39.5 46.9984C35.8013 46.9984 32.8028 43.9999 32.8028 40.3012C32.8028 36.6023 35.8013 33.6039 39.5 33.6039Z" fill="#00D8FF"/>
</svg>
