<svg width="80" height="80" viewBox="0 0 80 80" fill="none" xmlns="http://www.w3.org/2000/svg">
<rect x="16" y="1" width="47.0382" height="78" rx="1.09924" stroke="white" stroke-width="0.961832"/>
<path d="M39.5169 43.5718C41.4899 43.5718 43.0894 41.9723 43.0894 39.9993C43.0894 38.0262 41.4899 36.4268 39.5169 36.4268C37.5438 36.4268 35.9443 38.0262 35.9443 39.9993C35.9443 41.9723 37.5438 43.5718 39.5169 43.5718Z" fill="#61DAFB"/>
<path d="M39.517 47.6207C50.3688 47.6207 59.1659 44.2085 59.1659 39.9993C59.1659 35.7901 50.3688 32.3779 39.517 32.3779C28.6653 32.3779 19.8682 35.7901 19.8682 39.9993C19.8682 44.2085 28.6653 47.6207 39.517 47.6207Z" stroke="#61DAFB" stroke-width="0.824427"/>
<path d="M32.9158 43.8097C38.3417 53.2076 45.6953 59.12 49.3405 57.0154C52.9858 54.9108 51.5423 45.5862 46.1164 36.1883C40.6905 26.7904 33.3369 20.878 29.6917 22.9826C26.0464 25.0871 27.4899 34.4118 32.9158 43.8097Z" stroke="#61DAFB" stroke-width="0.824427"/>
<path d="M32.9173 36.188C27.4915 45.5859 26.048 54.9105 29.6932 57.0151C33.3385 59.1197 40.6921 53.2073 46.118 43.8094C51.5438 34.4115 52.9873 25.0869 49.3421 22.9823C45.6968 20.8777 38.3432 26.7901 32.9173 36.188Z" stroke="#61DAFB" stroke-width="0.824427"/>
<path d="M31.7041 73.8652H47.3339" stroke="white" stroke-width="0.961832" stroke-linecap="round"/>
</svg>
