<svg width="80" height="80" viewBox="0 0 80 80" fill="none" xmlns="http://www.w3.org/2000/svg">
<path d="M39.4994 72.3122C30.8861 72.2226 22.6611 68.7154 16.6334 62.562C10.6058 56.4086 7.26907 48.113 7.35717 39.4997C7.34064 30.8332 10.7175 22.5045 16.765 16.2966C19.718 13.2538 23.2518 10.8347 27.157 9.1828C31.0621 7.53088 35.2592 6.67969 39.4994 6.67969C43.7395 6.67969 47.9366 7.53088 51.8417 9.1828C55.7469 10.8347 59.2807 13.2538 62.2337 16.2966C68.2812 22.5045 71.6581 30.8332 71.6415 39.4997C71.7296 48.113 68.3929 56.4086 62.3653 62.562C56.3376 68.7154 48.1126 72.2226 39.4994 72.3122V72.3122Z" fill="black"/>
<path d="M29.8188 55.9418H28.8813C28.0547 55.9555 27.2296 55.8665 26.425 55.677C25.6942 55.4718 25.0582 55.0174 24.6273 54.3926C24.1085 53.6856 23.7786 52.8579 23.6688 51.9879C23.5136 50.6437 23.4463 49.2908 23.4672 47.9379C23.4919 46.6172 23.4293 45.2964 23.2797 43.984C23.1797 43.1854 22.8499 42.4331 22.3305 41.8184C22.0184 41.5026 21.6423 41.2574 21.2275 41.0994C20.8127 40.9413 20.3688 40.874 19.9258 40.902V38.0941C20.3688 38.1221 20.8127 38.0548 21.2275 37.8967C21.6423 37.7387 22.0184 37.4935 22.3305 37.1777C22.8499 36.563 23.1797 35.8107 23.2797 35.0121C23.4293 33.6997 23.4919 32.3789 23.4672 31.0582C23.4444 29.703 23.5102 28.3478 23.6641 27.0012C23.7739 26.1311 24.1038 25.3035 24.6227 24.5965C25.0536 23.9716 25.6895 23.5172 26.4203 23.3121C27.225 23.1226 28.05 23.0336 28.8766 23.0473H29.8141V25.7191H29.2844C28.0969 25.7191 27.3695 26.0316 27.1023 26.6566C26.7284 28.3244 26.5927 30.0367 26.6992 31.7426C26.8222 33.6044 26.4875 35.4681 25.7242 37.1707C25.0821 38.3062 24.0187 39.1431 22.7641 39.5004C23.3857 39.6715 23.9674 39.9638 24.4758 40.3604C24.9842 40.7569 25.4093 41.25 25.7266 41.8113C26.4899 43.5123 26.8254 45.3743 26.7039 47.2348C26.5974 48.9406 26.7331 50.6529 27.107 52.3207C27.3758 52.9457 28.1031 53.2582 29.2891 53.2582H29.8188V55.9418ZM33.5688 48.5801H35.9945V40.4848H39.4141L44.0313 48.5801H46.8063L41.9383 40.2223C43.1915 39.9909 44.318 39.3123 45.1083 38.3125C45.8986 37.3127 46.2987 36.0599 46.2344 34.7871C46.2344 30.8027 43.4219 29.4105 39.543 29.4105H33.5805L33.5688 48.5801ZM35.9945 38.502V31.3676H39.1797C42.1609 31.3676 43.7969 32.2723 43.7969 34.7871C43.7969 37.302 42.1563 38.4973 39.1797 38.4973L35.9945 38.502ZM49.0188 23.0543H49.9563C50.7828 23.0406 51.6079 23.1296 52.4125 23.3191C53.1433 23.5243 53.7793 23.9787 54.2102 24.6035C54.729 25.3105 55.0589 26.1382 55.1687 27.0082C55.3226 28.3548 55.3884 29.71 55.3656 31.0652C55.3409 32.3859 55.4035 33.7067 55.5531 35.0191C55.6531 35.8177 55.9829 36.57 56.5023 37.1848C56.8144 37.5005 57.1905 37.7457 57.6053 37.9038C58.0201 38.0619 58.464 38.1292 58.907 38.1012V40.8926C58.464 40.8646 58.0201 40.9319 57.6053 41.09C57.1905 41.2481 56.8144 41.4932 56.5023 41.809C55.9829 42.4237 55.6531 43.176 55.5531 43.9746C55.4035 45.287 55.3409 46.6079 55.3656 47.9285C55.3884 49.2837 55.3226 50.6389 55.1687 51.9855C55.0589 52.8556 54.729 53.6832 54.2102 54.3902C53.7793 55.0151 53.1433 55.4695 52.4125 55.6746C51.6079 55.8642 50.7828 55.9531 49.9563 55.9394H49.0188V53.2676H49.5484C50.7359 53.2676 51.4633 52.9551 51.7305 52.3301C52.1131 50.6604 52.2568 48.9448 52.157 47.2348C52.034 45.3729 52.3688 43.5093 53.132 41.8066C53.7711 40.6772 54.8325 39.8477 56.0828 39.5004C54.8273 39.1437 53.763 38.3067 53.1203 37.1707C52.3571 35.4681 52.0223 33.6044 52.1453 31.7426C52.2518 30.0367 52.1161 28.3244 51.7422 26.6566C51.4734 26.0316 50.7461 25.7191 49.5602 25.7191H49.0305L49.0188 23.0543Z" fill="white"/>
</svg>
