<svg width="80" height="80" viewBox="0 0 80 80" fill="none" xmlns="http://www.w3.org/2000/svg">
<g clip-path="url(#clip0_801_101)">
<path d="M46.5166 78.6717C44.4728 81.2454 40.3289 79.8353 40.2797 76.549L39.5596 28.4834H71.8793C77.7332 28.4834 80.9981 35.2447 77.358 39.8293L46.5166 78.6717Z" fill="url(#paint0_linear_801_101)"/>
<path d="M46.5166 78.6717C44.4728 81.2454 40.3289 79.8353 40.2797 76.549L39.5596 28.4834H71.8793C77.7332 28.4834 80.9981 35.2447 77.358 39.8293L46.5166 78.6717Z" fill="url(#paint1_linear_801_101)" fill-opacity="0.2"/>
<path d="M33.3716 1.32926C35.4154 -1.24471 39.5593 0.16564 39.6086 3.45195L39.9241 51.5175H8.00894C2.1548 51.5175 -1.11016 44.7562 2.53011 40.1716L33.3716 1.32926Z" fill="#3ECF8E"/>
</g>
<defs>
<linearGradient id="paint0_linear_801_101" x1="39.5596" y1="39.1407" x2="68.2841" y2="51.1879" gradientUnits="userSpaceOnUse">
<stop stop-color="#249361"/>
<stop offset="1" stop-color="#3ECF8E"/>
</linearGradient>
<linearGradient id="paint1_linear_801_101" x1="26.8246" y1="21.7045" x2="39.9242" y2="46.3642" gradientUnits="userSpaceOnUse">
<stop/>
<stop offset="1" stop-opacity="0"/>
</linearGradient>
<clipPath id="clip0_801_101">
<rect width="80" height="80" fill="white"/>
</clipPath>
</defs>
</svg>
