<svg width="80" height="80" viewBox="0 0 80 80" fill="none" xmlns="http://www.w3.org/2000/svg">
<path fill-rule="evenodd" clip-rule="evenodd" d="M39.5 17C29.5 17 23.25 22 20.75 32C24.5 27 28.875 25.125 33.875 26.375C36.7278 27.0875 38.7667 29.1583 41.0236 31.4486C44.7 35.1806 48.9556 39.5 58.25 39.5C68.25 39.5 74.5 34.5 77 24.5C73.25 29.5 68.875 31.375 63.875 30.125C61.0222 29.4125 58.9833 27.3417 56.7264 25.0514C53.05 21.3194 48.7944 17 39.5 17ZM20.75 39.5C10.75 39.5 4.5 44.5 2 54.5C5.75 49.5 10.125 47.625 15.125 48.875C17.9778 49.5889 20.0167 51.6583 22.2736 53.9486C25.95 57.6806 30.2056 62 39.5 62C49.5 62 55.75 57 58.25 47C54.5 52 50.125 53.875 45.125 52.625C42.2722 51.9125 40.2333 49.8417 37.9764 47.5514C34.3 43.8194 30.0444 39.5 20.75 39.5Z" fill="#38BDF8"/>
</svg>
