<svg width="80" height="80" viewBox="0 0 80 80" fill="none" xmlns="http://www.w3.org/2000/svg">
<path d="M76.978 2H2.02197C2.00984 2 2 2.00984 2 2.02197V76.978C2 76.9902 2.00984 77 2.02197 77H76.978C76.9902 77 77 76.9902 77 76.978V2.02197C77 2.00984 76.9902 2 76.978 2Z" fill="#3178C6"/>
<path d="M36.1309 43.6011H45.5059V37.5952H19.2852V43.6011H28.6602V70.4077H36.1309V43.6011ZM48.4355 68.9429C49.6221 69.5581 51.0723 70.0122 52.6836 70.3198C54.2949 70.6274 56.0527 70.7739 57.8105 70.7739C59.5684 70.7739 61.1797 70.6128 62.791 70.2759C64.4023 69.939 65.7207 69.3823 66.8926 68.6645C68.0791 67.8882 69.0898 66.9067 69.6758 65.5884C70.2617 64.27 70.7158 62.8052 70.7158 60.9009C70.7158 59.5679 70.5107 58.4106 70.1152 57.3853C69.7197 56.3599 69.1484 55.481 68.3574 54.7485C67.6104 53.9722 66.7461 53.2837 65.7207 52.6978C64.6953 52.1118 63.5234 51.4966 62.2051 50.9399C61.2383 50.5444 60.4473 50.1636 59.5684 49.7827C58.8066 49.4019 58.1475 49.021 57.6641 48.6401C57.1221 48.2446 56.7119 47.8345 56.4189 47.4097C56.126 46.9702 55.9795 46.4868 55.9795 45.9448C55.9795 45.4468 56.1099 44.9927 56.375 44.5825C56.6401 44.1724 57.0049 43.8354 57.4736 43.5425C57.9424 43.2495 58.5283 43.0298 59.2314 42.8687C59.9199 42.7075 60.6816 42.6343 61.5752 42.6343C62.1904 42.6343 62.835 42.6797 63.4795 42.772C64.1533 42.8643 64.8418 43.0063 65.5303 43.1968C66.2188 43.3872 66.8926 43.6216 67.5811 43.9146C68.2256 44.2075 68.8262 44.5444 69.3389 44.9253V38.0405C68.2256 37.6157 66.9951 37.2935 65.6768 37.0884C64.3584 36.8833 62.8936 36.7808 61.1357 36.7808C59.3779 36.7808 57.7666 36.9712 56.1553 37.3374C54.5439 37.7036 53.2256 38.2896 52.0537 39.0952C50.8672 39.8862 50.0029 40.853 49.2705 42.1714C48.582 43.4019 48.2451 44.8081 48.2451 46.5659C48.2451 48.7632 48.875 50.6675 50.1494 52.1323C51.4092 53.7436 53.3721 54.9155 55.8623 56.0874C56.873 56.4976 57.7666 56.9077 58.6455 57.3032C59.5244 57.6987 60.2568 58.1089 60.8428 58.5337C61.4727 58.9585 61.9707 59.4272 62.3076 59.9253C62.6738 60.4233 62.8643 61.0093 62.8643 61.6831C62.8643 62.1519 62.75 62.5913 62.5273 63.0015C62.3047 63.4116 61.9561 63.7632 61.4873 64.0562C61.0186 64.3491 60.4473 64.5835 59.7295 64.7593C59.041 64.9204 58.2646 65.0083 57.2393 65.0083C55.6279 65.0083 54.0166 64.73 52.5518 64.1733C50.9404 63.6167 49.4756 62.7817 48.4355 61.9116V68.9429Z" fill="white"/>
</svg>
