<svg width="80" height="80" viewBox="0 0 80 80" fill="none" xmlns="http://www.w3.org/2000/svg">
<path d="M74.3417 10.8973L58.8999 3.46297C58.0278 3.0425 57.0466 2.90375 56.0921 3.06594C55.1377 3.22813 54.2574 3.68323 53.5732 4.36816L3.02429 50.4527C2.41098 51.0092 2.04386 51.7865 2.00368 52.6137C1.9635 53.4409 2.25356 54.2501 2.81004 54.8635C2.87699 54.9358 2.94395 55.0054 3.01625 55.0697L7.14318 58.819C7.68245 59.3098 8.37659 59.5962 9.10506 59.6285C9.83352 59.6608 10.5503 59.4369 11.1309 58.9958L72.0171 12.8256C72.477 12.4766 73.0252 12.2629 73.5999 12.2086C74.1747 12.1542 74.7532 12.2614 75.2703 12.518C75.7875 12.7747 76.2227 13.1705 76.5271 13.6611C76.8314 14.1517 76.9928 14.7174 76.993 15.2948V15.1153C76.993 14.234 76.7441 13.3705 76.2751 12.6243C75.806 11.8781 75.1359 11.2795 74.3417 10.8973V10.8973Z" fill="#0065A9"/>
<path d="M74.3417 69.6556L58.8999 77.0926C58.0276 77.5119 57.0466 77.65 56.0924 77.4878C55.1383 77.3257 54.258 76.8713 53.5732 76.1874L3.02429 30.1002C2.41098 29.5437 2.04386 28.7664 2.00368 27.9392C1.9635 27.112 2.25356 26.3027 2.81004 25.6894C2.87699 25.6171 2.94395 25.5475 3.01625 25.4832L7.14318 21.7339C7.683 21.241 8.37873 20.9533 9.10899 20.921C9.83925 20.8887 10.5577 21.1138 11.1389 21.5571L72.0171 67.7273C72.477 68.0763 73.0252 68.29 73.5999 68.3443C74.1747 68.3986 74.7532 68.2915 75.2703 68.0348C75.7875 67.7782 76.2227 67.3824 76.5271 66.8918C76.8314 66.4012 76.9928 65.8354 76.993 65.2581V65.451C76.9901 66.33 76.74 67.1904 76.2711 67.934C75.8023 68.6775 75.1336 69.2741 74.3417 69.6556V69.6556Z" fill="#007ACC"/>
<path d="M58.9068 77.0923C58.0345 77.5116 57.0535 77.6497 56.0993 77.4875C55.1452 77.3254 54.2649 76.871 53.58 76.1871C53.9646 76.5667 54.4527 76.8243 54.9831 76.9277C55.5134 77.0311 56.0625 76.9756 56.5615 76.7683C57.0605 76.561 57.4872 76.211 57.7882 75.7622C58.0891 75.3134 58.2509 74.7858 58.2533 74.2455V6.30778C58.2538 5.76491 58.0931 5.23411 57.7916 4.78263C57.4901 4.33115 57.0614 3.97931 56.5598 3.77167C56.0582 3.56403 55.5063 3.50994 54.9739 3.61625C54.4416 3.72256 53.9527 3.98449 53.5693 4.36885C54.2537 3.68417 55.1338 3.22904 56.0881 3.0664C57.0423 2.90376 58.0236 3.04164 58.896 3.46098L74.3352 10.8846C75.1319 11.2649 75.8048 11.8627 76.2763 12.6091C76.7478 13.3554 76.9987 14.2198 76.9999 15.1026V65.4506C77.0001 66.3327 76.7511 67.1969 76.2816 67.9437C75.812 68.6904 75.141 69.2893 74.3459 69.6713L58.9068 77.0923Z" fill="#1F9CF0"/>
</svg>
