<?xml version="1.0" standalone="no"?>
<!DOCTYPE svg PUBLIC "-//W3C//DTD SVG 20010904//EN"
 "http://www.w3.org/TR/2001/REC-SVG-20010904/DTD/svg10.dtd">
<svg version="1.0" xmlns="http://www.w3.org/2000/svg"
 width="400.000000pt" height="400.000000pt" viewBox="0 0 400.000000 400.000000"
 preserveAspectRatio="xMidYMid meet">
<metadata>
Created by potrace 1.14, written by Peter Selinger 2001-2017
</metadata>
<g transform="translate(0.000000,400.000000) scale(0.100000,-0.100000)"
fill="#000000" stroke="none">
<path d="M678 3989 c-167 -25 -312 -101 -444 -233 -77 -77 -98 -107 -141 -193
-94 -187 -88 -76 -88 -1573 0 -1450 -4 -1344 60 -1503 72 -175 261 -363 432
-427 157 -59 58 -55 1503 -55 1269 0 1328 1 1395 19 286 77 498 288 581 576
18 62 19 132 22 1360 3 1437 5 1398 -62 1551 -97 224 -277 383 -523 462 l-68
22 -1305 1 c-718 1 -1331 -2 -1362 -7z m1539 -1225 l114 -25 56 25 c62 29 126
33 197 14 42 -11 45 -14 50 -52 3 -23 6 -91 5 -153 0 -88 4 -127 21 -180 49
-154 68 -265 64 -370 -11 -242 -118 -439 -321 -590 -79 -58 -107 -91 -147
-170 -29 -59 -53 -78 -110 -89 -48 -9 -149 14 -142 32 3 7 -5 28 -17 46 -17
24 -33 35 -62 41 -213 42 -312 82 -422 169 -94 74 -198 207 -247 313 -22 47
-43 221 -39 311 5 110 1 112 -118 68 -136 -50 -240 -95 -271 -117 -24 -15 -26
-22 -17 -38 11 -22 97 -64 254 -124 151 -58 168 -73 167 -149 -1 -48 -38 -139
-53 -130 -6 3 -25 8 -42 11 -30 4 -446 187 -590 260 -80 40 -107 76 -107 143
0 63 26 100 96 137 146 77 594 273 624 273 31 0 69 -30 70 -56 0 -20 27 -23
43 -6 26 29 65 116 82 181 9 34 23 78 32 97 20 42 95 94 137 95 72 3 106 8
185 28 46 12 109 26 140 31 85 14 242 3 368 -26z m644 -363 c62 -22 476 -213
591 -273 l78 -40 0 -79 0 -79 -112 -56 c-235 -118 -587 -274 -618 -274 -10 0
-23 75 -22 124 0 67 22 84 226 171 103 44 192 88 197 97 17 31 -30 64 -176
123 -77 32 -159 65 -182 75 -53 23 -77 66 -70 124 9 66 19 106 27 106 4 0 31
-9 61 -19z"/>
<path d="M1802 2700 c-41 -11 -93 -30 -115 -42 -40 -22 -42 -25 -43 -74 -1
-30 -9 -62 -19 -78 -32 -49 -100 -70 -146 -45 -16 8 -25 7 -37 -5 -30 -26 -83
-122 -110 -198 -23 -65 -26 -88 -26 -208 0 -121 3 -143 27 -217 89 -264 341
-454 607 -457 l95 -1 48 180 c63 238 88 377 89 505 0 98 -2 109 -31 167 -68
136 -60 288 23 410 14 21 26 41 26 45 0 3 -31 14 -69 22 -94 22 -228 20 -319
-4z"/>
<path d="M2609 2040 c-8 -5 -27 -10 -41 -12 -50 -7 -90 -61 -154 -210 -36 -84
-117 -348 -109 -356 10 -11 111 67 171 131 78 85 135 197 158 309 27 130 21
165 -25 138z"/>
</g>
</svg>
